<?xml version="1.0" encoding="UTF-8"?>
<svg id="Layer_1" data-name="Layer 1" xmlns="http://www.w3.org/2000/svg" viewBox="0 0 189.98 195.74">
  <defs>
    <style>
      .cls-1 {
        fill: #f6891f;
      }
    </style>
  </defs>
  <path class="cls-1" d="M150.31,111.6c2.14,3.45,4.19,6.77,6.25,10.09,3.8,6.13,7.72,12.2,11.36,18.42,7.66,13.09,4.47,30.04-7.28,39.65-3.35,2.74-6.78,5.33-10.88,6.9-6.6,2.52-13.3,2.63-20.04.79-7.48-2.05-13.2-6.49-17.45-12.95-4.03-6.14-8.15-12.21-12.24-18.31-1.94-2.9-4.81-3.04-7.09-.38-8.37,9.77-16.72,19.56-25.16,29.28-6.78,7.81-15.48,11.04-25.73,10.63-13.06-.53-25.47-10.86-28.36-23.65-2.54-11.24.15-21.04,7.85-29.66,7.33-8.21,14.38-16.67,21.55-25.02,2.2-2.56,1.29-5.64-1.91-6.8-7.26-2.64-14.55-5.2-21.74-8.01-8.36-3.27-14.09-9.4-17.16-17.69C-2.28,72.67.09,61.5,8.8,51.91c4.85-5.34,11.13-8.38,18.3-9.48,5.82-.89,11.35.32,16.86,2.08,10.47,3.34,20.98,6.54,31.48,9.79.26.08.54.11,1.01.21-.09-1.93-.16-3.76-.27-5.58-.2-3.22-.45-6.43-.64-9.65-.22-3.78-.41-7.57-.58-11.35-.32-7.24,2.05-13.52,6.86-18.91,4.08-4.57,9.1-7.54,15.16-8.55,9.77-1.62,18.16,1.07,25.01,8.33,4.82,5.12,6.93,11.27,7.19,18.23.24,6.24.74,12.48,1.13,18.72.18,3.02.37,6.04.52,9.06.11,2.44,2.03,3.66,4.25,2.67,5.84-2.6,11.65-5.28,17.54-7.77,8.31-3.51,16.43-2.65,24.11,1.8,7.78,4.51,12.27,11.55,13.08,20.37,1.03,11.13-3.24,20.09-12.91,26.11-2.22,1.38-4.63,2.45-6.96,3.63-6.14,3.11-12.29,6.21-18.44,9.32-.35.18-.69.39-1.2.68ZM139.28,108.45c.43-.23.77-.43,1.12-.61,10.39-5.24,20.74-10.56,31.19-15.7,8.92-4.38,12.6-15.1,9.81-23.32-3.88-11.44-16.43-16.65-27.3-11.41-5.54,2.67-11.2,5.11-16.88,7.48-5.93,2.47-13.4-2-13.94-8.3-.43-5.02-.68-10.06-.98-15.09-.29-4.87-.52-9.74-.81-14.61-.16-2.75-.59-5.44-1.78-7.96-3.13-6.65-10.87-12.26-20.22-11.09-8.98,1.13-16.8,9.3-16.82,18.35,0,3.87.29,7.74.52,11.6.43,7.37.92,14.73,1.38,22.09.11,1.72.16,3.45.25,5.28-.4-.09-.71-.13-1-.22-14.33-4.43-28.68-8.83-42.99-13.32-4.32-1.35-8.63-2.34-13.17-1.51-12.85,2.33-21.49,13.95-19.54,26.93,1.32,8.83,6.27,15.29,14.73,18.59,7.05,2.75,14.23,5.16,21.3,7.86,1.61.62,3.28,1.55,4.45,2.78,4.09,4.27,4.72,11.15.28,16.24-7.69,8.82-15.29,17.71-22.88,26.62-4.64,5.44-6.25,11.76-5.3,18.81,1.51,11.18,11.4,19.01,20.12,19.91,8.17.84,15.32-1.25,20.82-7.53,8.66-9.89,17.22-19.87,25.7-29.92,4.91-5.82,14.59-5.48,18.85,1.07,4.18,6.42,8.6,12.69,12.75,19.13,5.52,8.56,16.09,11.84,25.07,9.77,4.72-1.09,8.47-3.82,12.05-6.88,8.86-7.58,10.91-20.3,4.82-30.24-4.93-8.04-9.94-16.04-14.92-24.05-2.21-3.56-4.41-7.11-6.67-10.75Z"/>
</svg>