<?xml version="1.0" encoding="UTF-8"?>
<svg id="Layer_1" data-name="Layer 1" xmlns="http://www.w3.org/2000/svg" viewBox="0 0 680.57 195.74">
  <defs>
    <style>
      .cls-1 {
        fill: #f6891f;
      }
    </style>
  </defs>
  <path class="cls-1" d="M150.31,111.6c2.14,3.45,4.19,6.77,6.25,10.09,3.8,6.13,7.72,12.2,11.36,18.42,7.66,13.09,4.47,30.04-7.28,39.65-3.35,2.74-6.78,5.33-10.88,6.9-6.6,2.52-13.3,2.63-20.04.79-7.48-2.05-13.2-6.49-17.45-12.95-4.03-6.14-8.15-12.21-12.24-18.31-1.94-2.9-4.81-3.04-7.09-.38-8.37,9.77-16.72,19.56-25.16,29.28-6.78,7.81-15.48,11.04-25.73,10.63-13.06-.53-25.47-10.86-28.36-23.65-2.54-11.24.15-21.04,7.85-29.66,7.33-8.21,14.38-16.67,21.55-25.02,2.2-2.56,1.29-5.64-1.91-6.8-7.26-2.64-14.55-5.2-21.74-8.01-8.36-3.27-14.09-9.4-17.16-17.69C-2.28,72.67.09,61.5,8.8,51.91c4.85-5.34,11.13-8.38,18.3-9.48,5.82-.89,11.35.32,16.86,2.08,10.47,3.34,20.98,6.54,31.48,9.79.26.08.54.11,1.01.21-.09-1.93-.16-3.76-.27-5.58-.2-3.22-.45-6.43-.64-9.65-.22-3.78-.41-7.57-.58-11.35-.32-7.24,2.05-13.52,6.86-18.91,4.08-4.57,9.1-7.54,15.16-8.55,9.77-1.62,18.16,1.07,25.01,8.33,4.82,5.12,6.93,11.27,7.19,18.23.24,6.24.74,12.48,1.13,18.72.18,3.02.37,6.04.52,9.06.11,2.44,2.03,3.66,4.25,2.67,5.84-2.6,11.65-5.28,17.54-7.77,8.31-3.51,16.43-2.65,24.11,1.8,7.78,4.51,12.27,11.55,13.08,20.37,1.03,11.13-3.24,20.09-12.91,26.11-2.22,1.38-4.63,2.45-6.96,3.63-6.14,3.11-12.29,6.21-18.44,9.32-.35.18-.69.39-1.2.68ZM139.28,108.45c.43-.23.77-.43,1.12-.61,10.39-5.24,20.74-10.56,31.19-15.7,8.92-4.38,12.6-15.1,9.81-23.32-3.88-11.44-16.43-16.65-27.3-11.41-5.54,2.67-11.2,5.11-16.88,7.48-5.93,2.47-13.4-2-13.94-8.3-.43-5.02-.68-10.06-.98-15.09-.29-4.87-.52-9.74-.81-14.61-.16-2.75-.59-5.44-1.78-7.96-3.13-6.65-10.87-12.26-20.22-11.09-8.98,1.13-16.8,9.3-16.82,18.35,0,3.87.29,7.74.52,11.6.43,7.37.92,14.73,1.38,22.09.11,1.72.16,3.45.25,5.28-.4-.09-.71-.13-1-.22-14.33-4.43-28.68-8.83-42.99-13.32-4.32-1.35-8.63-2.34-13.17-1.51-12.85,2.33-21.49,13.95-19.54,26.93,1.32,8.83,6.27,15.29,14.73,18.59,7.05,2.75,14.23,5.16,21.3,7.86,1.61.62,3.28,1.55,4.45,2.78,4.09,4.27,4.72,11.15.28,16.24-7.69,8.82-15.29,17.71-22.88,26.62-4.64,5.44-6.25,11.76-5.3,18.81,1.51,11.18,11.4,19.01,20.12,19.91,8.17.84,15.32-1.25,20.82-7.53,8.66-9.89,17.22-19.87,25.7-29.92,4.91-5.82,14.59-5.48,18.85,1.07,4.18,6.42,8.6,12.69,12.75,19.13,5.52,8.56,16.09,11.84,25.07,9.77,4.72-1.09,8.47-3.82,12.05-6.88,8.86-7.58,10.91-20.3,4.82-30.24-4.93-8.04-9.94-16.04-14.92-24.05-2.21-3.56-4.41-7.11-6.67-10.75Z"/>
  <g>
    <g>
      <path class="cls-1" d="M314.45,100.26h-.47c-1.33-.32-2.62-.55-3.87-.69-1.25-.14-2.73-.21-4.44-.21-2.76,0-5.42.61-7.98,1.83-2.56,1.22-5.04,2.8-7.41,4.73v37.67h-8.93v-53.06h8.93v7.84c3.55-2.85,6.67-4.87,9.38-6.06,2.71-1.19,5.47-1.78,8.29-1.78,1.55,0,2.68.04,3.37.12.7.08,1.74.23,3.14.45v9.17Z"/>
      <path class="cls-1" d="M367.27,117.98h-39.1c0,3.26.49,6.1,1.47,8.53.98,2.42,2.33,4.41,4.04,5.96,1.65,1.52,3.6,2.66,5.87,3.42,2.26.76,4.76,1.14,7.48,1.14,3.61,0,7.24-.72,10.9-2.16,3.66-1.44,6.26-2.86,7.82-4.25h.47v9.74c-3.01,1.27-6.08,2.33-9.22,3.18-3.14.85-6.43,1.28-9.88,1.28-8.8,0-15.68-2.38-20.62-7.15-4.94-4.77-7.41-11.54-7.41-20.31s2.37-15.56,7.1-20.66c4.73-5.1,10.97-7.65,18.69-7.65,7.16,0,12.68,2.09,16.56,6.27,3.88,4.18,5.82,10.12,5.82,17.81v4.85ZM358.58,111.14c-.03-4.69-1.21-8.31-3.54-10.88s-5.87-3.85-10.62-3.85-8.59,1.41-11.42,4.23c-2.83,2.82-4.44,6.32-4.82,10.5h30.4Z"/>
      <path class="cls-1" d="M425.23,117.98h-39.1c0,3.26.49,6.1,1.47,8.53.98,2.42,2.33,4.41,4.04,5.96,1.65,1.52,3.6,2.66,5.87,3.42,2.26.76,4.76,1.14,7.48,1.14,3.61,0,7.24-.72,10.9-2.16,3.66-1.44,6.26-2.86,7.82-4.25h.47v9.74c-3.01,1.27-6.08,2.33-9.22,3.18-3.14.85-6.43,1.28-9.88,1.28-8.8,0-15.68-2.38-20.62-7.15-4.94-4.77-7.41-11.54-7.41-20.31s2.37-15.56,7.1-20.66c4.73-5.1,10.96-7.65,18.69-7.65,7.16,0,12.68,2.09,16.56,6.27,3.88,4.18,5.82,10.12,5.82,17.81v4.85ZM416.53,111.14c-.03-4.69-1.21-8.31-3.54-10.88-2.33-2.57-5.87-3.85-10.62-3.85s-8.59,1.41-11.42,4.23c-2.83,2.82-4.44,6.32-4.82,10.5h30.4Z"/>
      <path class="cls-1" d="M447.79,143.59h-8.93v-73.92h8.93v73.92Z"/>
      <path class="cls-1" d="M506.7,143.59h-8.88v-5.65c-.79.54-1.86,1.29-3.21,2.26-1.35.97-2.65,1.73-3.92,2.3-1.49.73-3.2,1.34-5.13,1.83-1.93.49-4.2.74-6.79.74-4.78,0-8.84-1.58-12.16-4.75-3.33-3.17-4.99-7.2-4.99-12.11,0-4.02.86-7.28,2.59-9.76,1.73-2.49,4.19-4.44,7.39-5.87,3.23-1.43,7.11-2.39,11.64-2.9,4.53-.51,9.39-.89,14.58-1.14v-1.38c0-2.03-.36-3.71-1.07-5.04s-1.73-2.38-3.06-3.14c-1.27-.73-2.79-1.22-4.56-1.47-1.77-.25-3.63-.38-5.56-.38-2.34,0-4.96.31-7.84.93-2.88.62-5.86,1.51-8.93,2.68h-.47v-9.07c1.74-.47,4.26-1,7.55-1.57,3.29-.57,6.54-.85,9.74-.85,3.74,0,6.99.31,9.76.93,2.77.62,5.17,1.67,7.2,3.16,2,1.46,3.52,3.34,4.56,5.65,1.04,2.31,1.57,5.18,1.57,8.6v36.01ZM497.81,130.52v-14.77c-2.72.16-5.93.4-9.62.71-3.69.32-6.61.78-8.76,1.38-2.57.73-4.64,1.86-6.22,3.4-1.58,1.54-2.38,3.65-2.38,6.34,0,3.04.92,5.33,2.76,6.86,1.84,1.54,4.64,2.3,8.41,2.3,3.13,0,6-.61,8.6-1.83,2.6-1.22,5-2.68,7.22-4.39Z"/>
      <path class="cls-1" d="M568.26,143.59h-8.93v-30.21c0-2.44-.14-4.73-.43-6.86-.29-2.14-.81-3.81-1.57-5.01-.79-1.33-1.93-2.32-3.42-2.97-1.49-.65-3.42-.97-5.8-.97s-4.99.6-7.65,1.81c-2.66,1.2-5.21,2.74-7.65,4.61v39.62h-8.93v-53.06h8.93v5.89c2.79-2.31,5.67-4.12,8.65-5.42,2.98-1.3,6.03-1.95,9.17-1.95,5.73,0,10.1,1.73,13.11,5.18,3.01,3.45,4.51,8.42,4.51,14.92v34.44Z"/>
      <path class="cls-1" d="M624.7,140.26c-2.98,1.42-5.8,2.53-8.48,3.33-2.68.79-5.52,1.19-8.53,1.19-3.83,0-7.35-.56-10.55-1.69-3.2-1.12-5.94-2.83-8.22-5.11-2.31-2.28-4.1-5.16-5.37-8.65-1.27-3.48-1.9-7.55-1.9-12.21,0-8.68,2.38-15.49,7.15-20.43,4.77-4.94,11.06-7.41,18.88-7.41,3.04,0,6.03.43,8.96,1.28,2.93.85,5.61,1.9,8.05,3.14v9.93h-.48c-2.72-2.12-5.53-3.75-8.43-4.89s-5.72-1.71-8.48-1.71c-5.07,0-9.07,1.7-12,5.11-2.93,3.4-4.39,8.4-4.39,14.99s1.43,11.31,4.3,14.75c2.87,3.44,6.9,5.15,12.09,5.15,1.8,0,3.64-.24,5.51-.71,1.87-.48,3.55-1.09,5.04-1.85,1.3-.67,2.52-1.37,3.66-2.11,1.14-.74,2.04-1.39,2.71-1.92h.48v9.83Z"/>
      <path class="cls-1" d="M680.57,117.98h-39.1c0,3.26.49,6.1,1.47,8.53.98,2.42,2.33,4.41,4.04,5.96,1.65,1.52,3.6,2.66,5.87,3.42,2.26.76,4.76,1.14,7.48,1.14,3.61,0,7.24-.72,10.9-2.16,3.66-1.44,6.26-2.86,7.82-4.25h.47v9.74c-3.01,1.27-6.08,2.33-9.22,3.18-3.14.85-6.43,1.28-9.88,1.28-8.8,0-15.68-2.38-20.62-7.15-4.94-4.77-7.41-11.54-7.41-20.31s2.37-15.56,7.1-20.66c4.73-5.1,10.96-7.65,18.69-7.65,7.16,0,12.68,2.09,16.56,6.27,3.88,4.18,5.82,10.12,5.82,17.81v4.85ZM671.87,111.14c-.03-4.69-1.21-8.31-3.54-10.88-2.33-2.57-5.87-3.85-10.62-3.85s-8.59,1.41-11.42,4.23c-2.83,2.82-4.44,6.32-4.82,10.5h30.4Z"/>
    </g>
    <path class="cls-1" d="M271.31,81.53h-.45c-.93-.27-2.15-.55-3.66-.84-1.51-.29-2.83-.43-3.97-.43-3.64,0-6.29.81-7.93,2.42-1.64,1.61-2.46,4.52-2.46,8.74v1.72h15.31v7.14h-15.04v43.32h-8.49v-43.32h-5.74v-7.14h5.74v-1.67c0-5.99,1.49-10.59,4.47-13.8,2.98-3.21,7.29-4.81,12.92-4.81,1.9,0,3.61.09,5.13.27,1.52.18,2.91.39,4.18.63v7.77Z"/>
  </g>
</svg>