<?xml version="1.0" encoding="UTF-8"?>
<svg id="Layer_1" data-name="Layer 1" xmlns="http://www.w3.org/2000/svg" viewBox="0 0 441.68 75.39">
  <defs>
    <style>
      .cls-1 {
        fill: #f6891f;
      }
    </style>
  </defs>
  <g>
    <path class="cls-1" d="M75.57,30.59h-.47c-1.33-.32-2.62-.55-3.87-.69-1.25-.14-2.73-.21-4.44-.21-2.76,0-5.42.61-7.98,1.83-2.56,1.22-5.04,2.8-7.41,4.73v37.67h-8.93V20.85h8.93v7.84c3.55-2.85,6.67-4.87,9.38-6.06,2.71-1.19,5.47-1.78,8.29-1.78,1.55,0,2.68.04,3.37.12.7.08,1.74.23,3.14.45v9.17Z"/>
    <path class="cls-1" d="M128.39,48.31h-39.1c0,3.26.49,6.1,1.47,8.53.98,2.42,2.33,4.41,4.04,5.96,1.65,1.52,3.6,2.66,5.87,3.42,2.26.76,4.76,1.14,7.48,1.14,3.61,0,7.24-.72,10.9-2.16,3.66-1.44,6.26-2.86,7.82-4.25h.47v9.74c-3.01,1.27-6.08,2.33-9.22,3.18-3.14.85-6.43,1.28-9.88,1.28-8.8,0-15.68-2.38-20.62-7.15-4.94-4.77-7.41-11.54-7.41-20.31s2.37-15.56,7.1-20.66c4.73-5.1,10.97-7.65,18.69-7.65,7.16,0,12.68,2.09,16.56,6.27,3.88,4.18,5.82,10.12,5.82,17.81v4.85ZM119.7,41.47c-.03-4.69-1.21-8.31-3.54-10.88s-5.87-3.85-10.62-3.85-8.59,1.41-11.42,4.23c-2.83,2.82-4.44,6.32-4.82,10.5h30.4Z"/>
    <path class="cls-1" d="M186.35,48.31h-39.1c0,3.26.49,6.1,1.47,8.53.98,2.42,2.33,4.41,4.04,5.96,1.65,1.52,3.6,2.66,5.87,3.42,2.26.76,4.76,1.14,7.48,1.14,3.61,0,7.24-.72,10.9-2.16,3.66-1.44,6.26-2.86,7.82-4.25h.47v9.74c-3.01,1.27-6.08,2.33-9.22,3.18-3.14.85-6.43,1.28-9.88,1.28-8.8,0-15.68-2.38-20.62-7.15-4.94-4.77-7.41-11.54-7.41-20.31s2.37-15.56,7.1-20.66c4.73-5.1,10.96-7.65,18.69-7.65,7.16,0,12.68,2.09,16.56,6.27,3.88,4.18,5.82,10.12,5.82,17.81v4.85ZM177.65,41.47c-.03-4.69-1.21-8.31-3.54-10.88-2.33-2.57-5.87-3.85-10.62-3.85s-8.59,1.41-11.42,4.23c-2.83,2.82-4.44,6.32-4.82,10.5h30.4Z"/>
    <path class="cls-1" d="M208.91,73.92h-8.93V0h8.93v73.92Z"/>
    <path class="cls-1" d="M267.82,73.92h-8.88v-5.65c-.79.54-1.86,1.29-3.21,2.26-1.35.97-2.65,1.73-3.92,2.3-1.49.73-3.2,1.34-5.13,1.83-1.93.49-4.2.74-6.79.74-4.78,0-8.84-1.58-12.16-4.75-3.33-3.17-4.99-7.2-4.99-12.11,0-4.02.86-7.28,2.59-9.76,1.73-2.49,4.19-4.44,7.39-5.87,3.23-1.43,7.11-2.39,11.64-2.9,4.53-.51,9.39-.89,14.58-1.14v-1.38c0-2.03-.36-3.71-1.07-5.04s-1.73-2.38-3.06-3.14c-1.27-.73-2.79-1.22-4.56-1.47-1.77-.25-3.63-.38-5.56-.38-2.34,0-4.96.31-7.84.93-2.88.62-5.86,1.51-8.93,2.68h-.47v-9.07c1.74-.47,4.26-1,7.55-1.57,3.29-.57,6.54-.85,9.74-.85,3.74,0,6.99.31,9.76.93,2.77.62,5.17,1.67,7.2,3.16,2,1.46,3.52,3.34,4.56,5.65,1.04,2.31,1.57,5.18,1.57,8.6v36.01ZM258.93,60.85v-14.77c-2.72.16-5.93.4-9.62.71-3.69.32-6.61.78-8.76,1.38-2.57.73-4.64,1.86-6.22,3.4-1.58,1.54-2.38,3.65-2.38,6.34,0,3.04.92,5.33,2.76,6.86,1.84,1.54,4.64,2.3,8.41,2.3,3.13,0,6-.61,8.6-1.83,2.6-1.22,5-2.68,7.22-4.39Z"/>
    <path class="cls-1" d="M329.38,73.92h-8.93v-30.21c0-2.44-.14-4.73-.43-6.86-.29-2.14-.81-3.81-1.57-5.01-.79-1.33-1.93-2.32-3.42-2.97-1.49-.65-3.42-.97-5.8-.97s-4.99.6-7.65,1.81c-2.66,1.2-5.21,2.74-7.65,4.61v39.62h-8.93V20.85h8.93v5.89c2.79-2.31,5.67-4.12,8.65-5.42,2.98-1.3,6.03-1.95,9.17-1.95,5.73,0,10.1,1.73,13.11,5.18,3.01,3.45,4.51,8.42,4.51,14.92v34.44Z"/>
    <path class="cls-1" d="M385.82,70.59c-2.98,1.42-5.8,2.53-8.48,3.33-2.68.79-5.52,1.19-8.53,1.19-3.83,0-7.35-.56-10.55-1.69-3.2-1.12-5.94-2.83-8.22-5.11-2.31-2.28-4.1-5.16-5.37-8.65-1.27-3.48-1.9-7.55-1.9-12.21,0-8.68,2.38-15.49,7.15-20.43,4.77-4.94,11.06-7.41,18.88-7.41,3.04,0,6.03.43,8.96,1.28,2.93.85,5.61,1.9,8.05,3.14v9.93h-.48c-2.72-2.12-5.53-3.75-8.43-4.89s-5.72-1.71-8.48-1.71c-5.07,0-9.07,1.7-12,5.11-2.93,3.4-4.39,8.4-4.39,14.99s1.43,11.31,4.3,14.75c2.87,3.44,6.9,5.15,12.09,5.15,1.8,0,3.64-.24,5.51-.71,1.87-.48,3.55-1.09,5.04-1.85,1.3-.67,2.52-1.37,3.66-2.11,1.14-.74,2.04-1.39,2.71-1.92h.48v9.83Z"/>
    <path class="cls-1" d="M441.68,48.31h-39.1c0,3.26.49,6.1,1.47,8.53.98,2.42,2.33,4.41,4.04,5.96,1.65,1.52,3.6,2.66,5.87,3.42,2.26.76,4.76,1.14,7.48,1.14,3.61,0,7.24-.72,10.9-2.16,3.66-1.44,6.26-2.86,7.82-4.25h.47v9.74c-3.01,1.27-6.08,2.33-9.22,3.18-3.14.85-6.43,1.28-9.88,1.28-8.8,0-15.68-2.38-20.62-7.15-4.94-4.77-7.41-11.54-7.41-20.31s2.37-15.56,7.1-20.66c4.73-5.1,10.96-7.65,18.69-7.65,7.16,0,12.68,2.09,16.56,6.27,3.88,4.18,5.82,10.12,5.82,17.81v4.85ZM432.99,41.47c-.03-4.69-1.21-8.31-3.54-10.88-2.33-2.57-5.87-3.85-10.62-3.85s-8.59,1.41-11.42,4.23c-2.83,2.82-4.44,6.32-4.82,10.5h30.4Z"/>
  </g>
  <path class="cls-1" d="M32.43,11.86h-.45c-.93-.27-2.15-.55-3.66-.84-1.51-.29-2.83-.43-3.97-.43-3.64,0-6.29.81-7.93,2.42-1.64,1.61-2.46,4.52-2.46,8.74v1.72h15.31v7.14h-15.04v43.32H5.74V30.6H0v-7.14h5.74v-1.67c0-5.99,1.49-10.59,4.47-13.8,2.98-3.21,7.29-4.81,12.92-4.81,1.9,0,3.61.09,5.13.27,1.52.18,2.91.39,4.18.63v7.77Z"/>
</svg>